<?xml version="1.0" encoding="UTF-8" standalone="no"?>
<!-- Created with Inkscape (http://www.inkscape.org/) -->

<svg
   width="154.78125mm"
   height="154.78125mm"
   viewBox="0 0 154.78125 154.78125"
   version="1.1"
   id="svg5"
   sodipodi:docname="boblabor_kopf.svg.2025_03_10_19_33_55.0.svg"
   inkscape:version="1.1 (c68e22c387, 2021-05-23)"
   inkscape:export-filename="C:\Users\Admin\Desktop\logo.png"
   inkscape:export-xdpi="367.73041"
   inkscape:export-ydpi="367.73041"
   xmlns:inkscape="http://www.inkscape.org/namespaces/inkscape"
   xmlns:sodipodi="http://sodipodi.sourceforge.net/DTD/sodipodi-0.dtd"
   xmlns="http://www.w3.org/2000/svg"
   xmlns:svg="http://www.w3.org/2000/svg">
  <sodipodi:namedview
     id="namedview7"
     pagecolor="#505050"
     bordercolor="#ffffff"
     borderopacity="1"
     inkscape:pageshadow="0"
     inkscape:pageopacity="0"
     inkscape:pagecheckerboard="1"
     inkscape:document-units="mm"
     showgrid="false"
     fit-margin-top="0"
     fit-margin-left="0"
     fit-margin-right="0"
     fit-margin-bottom="0"
     inkscape:zoom="1"
     inkscape:cx="62"
     inkscape:cy="254.5"
     inkscape:window-width="1920"
     inkscape:window-height="1009"
     inkscape:window-x="1912"
     inkscape:window-y="40"
     inkscape:window-maximized="1"
     inkscape:current-layer="layer4" />
  <defs
     id="defs2" />
  <g
     inkscape:groupmode="layer"
     id="layer4"
     inkscape:label="Ebene 6"
     style="display:inline">
    <path
       style="fill:#ffffff;stroke:#ffffff;stroke-width:0.264583px;stroke-linecap:butt;stroke-linejoin:miter;stroke-opacity:1"
       d="m 108.97915,36.669379 c -16.577108,2.654736 -13.707178,21.907654 -0.0936,22.918361 -0.0168,4.908913 -0.13292,7.830344 7.59721,7.517207 l 17.33236,-0.127204 c 7.44528,-1.721187 12.16968,-7.040512 12.86235,-13.376841 l 0.0935,-17.258929 c 0.19751,-5.982666 -1.51705,-7.467048 -7.62386,-7.15614 -0.48794,-15.372848 -22.41497,-14.65504 -22.77805,0.09354 -4.74497,-0.725421 -7.9286,0.764683 -7.38991,7.390006 z"
       id="path6678"
       sodipodi:nodetypes="ccccccccc" />
    <path
       style="display:inline;fill:#ffffff;stroke:#ffffff;stroke-width:0.264583px;stroke-linecap:butt;stroke-linejoin:miter;stroke-opacity:1"
       d="m 93.46405,70.114582 0.0992,-7.309114 c 0.12873,-2.93521 -1.33247,-3.816765 -3.30729,-4.034896 l -4.66328,0.03307 c -4.810483,-0.402577 -4.573366,-7.874483 0.0331,-7.772135 l 4.36562,-10e-7 c 1.70067,-0.165904 3.24636,-0.570747 3.47266,-3.009635 l 0.13229,-12.865364 c -0.0557,-1.667956 -0.81533,-2.86663 -3.10885,-3.042708 l -18.322395,0.03307 c -3.254712,0.07251 -6.171831,2.33937 -8.929134,5.645036 C 59.96191,32.262564 44.059373,26.157367 36.85646,44.012603 23.367444,45.639012 18.203198,54.949823 17.660929,68.527076 8.001728,76.383094 6.600491,93.032483 17.793221,102.39374 c -1.57214,7.32598 4.677025,22.29312 19.314583,24.20937 5.727756,15.23851 19.140051,12.37902 26.458333,6.74688 16.775267,8.98116 20.849153,1.76807 23.746353,-6.94531 13.32989,-1.36199 21.18112,-8.56441 21.29896,-24.01094 5.46645,-3.931369 7.56373,-10.217969 7.40833,-22.886455 l -0.0662,-6.846094 c 0.0133,-2.594961 -1.39775,-2.450281 -2.57968,-2.513542 z"
       id="path1885-6"
       sodipodi:nodetypes="cccccccccccccccccccccc" />
  </g>
  <g
     inkscape:groupmode="layer"
     id="layer3"
     inkscape:label="Ebene 5">
    <path
       style="display:inline;fill:#3d0181;stroke:#6f00ff;stroke-width:0.264583px;stroke-linecap:butt;stroke-linejoin:miter;stroke-opacity:1;fill-opacity:1"
       d="m 32.742187,52.982812 c -4.525582,2.539684 -8.87983,8.52051 -7.672306,14.41588 0.59183,2.037504 0.266514,4.257575 -0.65481,4.911077 -10.501339,8.229122 -7.705625,20.191427 -0.748355,25.444059 1.512964,1.141447 1.96024,2.009456 1.492009,5.261182 -0.800628,11.18396 7.250408,16.15376 14.410527,16.53465 2.398585,0.16019 4.605206,0.66459 4.49013,5.33203 0.52639,7.01804 13.26493,9.32389 15.341269,0 l -0.0017,-9.19263 L 45.309888,115.55677 32.74218,103.05521 V 52.982812"
       id="path6654-5-7"
       sodipodi:nodetypes="cccccccccccc" />
    <path
       style="display:inline;fill:#3d0181;stroke:#3d0181;stroke-width:0.264583px;stroke-linecap:butt;stroke-linejoin:miter;stroke-opacity:1;fill-opacity:1"
       d="m 66.731261,115.71328 0.10617,9.12163 c 1.33161,9.26686 15.13627,7.44866 15.24772,0.37418 0.2002,-4.40768 1.61149,-5.61962 6.64165,-5.47234 4.02792,-0.39817 5.97575,-2.3564 8.071338,-4.20381 z"
       id="path12864-7-8"
       sodipodi:nodetypes="cccccc" />
    <path
       style="fill:#3d0181;stroke:#3d0181;stroke-width:0.264583px;stroke-linecap:butt;stroke-linejoin:miter;stroke-opacity:1;fill-opacity:1"
       d="m 116.41667,55.694791 v 4.034896 l 16.00729,-0.06615 c 7.90353,-1.126969 6.80293,-7.469637 6.81302,-13.229167 l -22.82027,9.260412"
       id="path16677"
       sodipodi:nodetypes="ccccc" />
  </g>
  <g
     inkscape:groupmode="layer"
     id="layer1"
     inkscape:label="Ebene 7"
     style="display:inline">
    <path
       style="fill:#6f00ff;stroke:#6f00ff;stroke-width:0.264583px;stroke-linecap:butt;stroke-linejoin:miter;stroke-opacity:1;fill-opacity:1"
       d="m 32.742187,52.982812 v 50.072398 c 0.928065,7.70012 5.663278,11.27583 12.567708,12.50156 l 14.089063,0.13229 -0.06615,-38.298436 c -4.015496,-1.404099 -7.954554,-1.738058 -12.203906,-6.416146 -4.214967,2.335635 -6.865093,5.591766 -6.846094,10.417969 l -7.474479,0.132292 C 33.937845,73.589356 36.490144,67.274449 43.030393,65.2004 40.958278,61.801622 40.507167,58.402845 40.411151,55.004067 h 7.296459 c 0.898153,9.012894 5.441634,13.11252 12.06722,14.40583 v -23.94735 c -2.199325,-7.771522 -13.964557,-8.122179 -15.434815,-0.280633 0.01297,3.440882 -0.66188,6.302545 -5.332029,5.799748 -2.184998,0.185058 -4.327684,0.581679 -6.265799,2.00115 z"
       id="path5285"
       sodipodi:nodetypes="cccccccccccccccc" />
    <path
       style="fill:#6f00ff;stroke:#6f00ff;stroke-width:0.264583px;stroke-linecap:butt;stroke-linejoin:miter;stroke-opacity:1;fill-opacity:1"
       d="m 85.87373,39.616025 -13.1196,0.304019 c -2.58312,0.406363 -4.66166,1.398505 -5.76467,5.998531 l -0.152,54.173865 c 6.66809,-1.991188 10.98123,-6.480054 11.83335,-14.639692 h 7.20292 c 0.0418,3.511435 -0.37329,6.87061 -2.43216,9.68184 4.91853,3.30062 9.97602,6.404762 9.9157,16.744432 h -7.15614 c -0.87644,-7.12774 -4.10093,-8.65627 -7.20291,-10.47696 -3.06362,3.03284 -6.32464,5.88062 -12.16076,6.31424 l -0.106197,7.99698 c 5.778581,0.13071 30.066882,-0.18034 30.066882,-0.18034 0,0 6.899845,-5.18554 4.042645,-15.25341 0.0836,-3.796569 9.47103,-3.764918 8.04481,-22.731278 l -19.176576,0.18709 c -2.148513,0.0016 -3.279682,-1.137308 -3.83532,-3.180509 l 0.0935,-8.231902 C 72.38475,65.492362 69.55793,45.638797 86.15429,43.498116 Z"
       id="path8513-0"
       sodipodi:nodetypes="cccccccccccccccccccc" />
    <path
       style="fill:#6f00ff;stroke:#6f00ff;stroke-width:0.264583px;stroke-linecap:butt;stroke-linejoin:miter;stroke-opacity:1;fill-opacity:1"
       d="m 116.41667,55.694791 c 8.82544,0.841686 22.11668,0.302037 22.82031,-9.260417 v -9.855729 l -4.43177,0.132292 c -1.34301,-0.356691 -2.63164,-0.822146 -3.10886,-2.910417 l -0.0661,-5.622395 c -0.2071,-3.72843 -6.44301,-4.583118 -7.60677,0.132291 l -0.0661,5.55625 c -0.18931,1.598854 -1.35476,2.501473 -2.77812,2.778125 l -4.7625,-0.06615 -0.29198,4.404373 c 0.12787,1.971281 -1.24561,2.965714 -2.68459,3.202398 l -4.49791,-0.06615 c -4.86258,0.350745 -5.64768,7.201724 0.26458,7.805209 l 4.7625,0.264583 c 1.91703,0.410148 2.2384,1.771128 2.44735,3.505733 z"
       id="path14388"
       sodipodi:nodetypes="ccccccccccccccccc" />
  </g>
</svg>
